<?xml version="1.0" standalone="no"?>
<!DOCTYPE svg PUBLIC "-//W3C//DTD SVG 20010904//EN"
 "http://www.w3.org/TR/2001/REC-SVG-20010904/DTD/svg10.dtd">
<svg version="1.0" xmlns="http://www.w3.org/2000/svg"
 width="848.000000pt" height="848.000000pt" viewBox="0 0 848.000000 848.000000"
 preserveAspectRatio="xMidYMid meet">
<metadata>
Created by potrace 1.14, written by Peter Selinger 2001-2017
</metadata>
<g transform="translate(0.000000,848.000000) scale(0.100000,-0.100000)"
fill="#000000" stroke="none">
<path d="M4769 8476 c-2 -2 -26 -6 -54 -10 -62 -7 -103 -14 -135 -23 -36 -9
-42 -11 -70 -17 -122 -26 -350 -125 -495 -214 -38 -24 -79 -48 -90 -55 -11 -7
-22 -14 -25 -17 -3 -3 -34 -26 -70 -51 -36 -25 -74 -52 -85 -61 -11 -10 -47
-39 -80 -65 -93 -74 -129 -107 -285 -263 -166 -167 -196 -200 -325 -357 -5 -7
-15 -18 -21 -25 -68 -83 -207 -275 -302 -418 -31 -47 -63 -91 -69 -98 -7 -7
-13 -18 -13 -23 0 -5 -15 -31 -33 -57 -18 -26 -39 -59 -46 -74 -8 -16 -22 -28
-32 -28 -19 0 -20 -3 44 140 63 142 197 420 207 430 3 3 17 30 32 60 16 30 66
122 113 204 57 101 83 156 79 168 -6 22 4 31 -110 -98 -71 -79 -144 -171 -144
-179 0 -4 -6 -12 -13 -20 -7 -7 -36 -46 -63 -86 -27 -41 -51 -76 -54 -79 -3
-3 -18 -25 -34 -50 -16 -25 -42 -64 -58 -87 -15 -23 -28 -44 -28 -47 0 -3 -16
-30 -35 -60 -19 -30 -35 -60 -35 -66 0 -5 -4 -10 -9 -10 -5 0 -11 -8 -14 -17
-3 -10 -22 -47 -42 -83 -79 -139 -181 -349 -255 -521 -17 -41 -42 -99 -56
-130 -13 -31 -24 -63 -24 -71 0 -8 -4 -18 -8 -23 -5 -6 -19 -39 -32 -75 -12
-36 -27 -76 -33 -90 -5 -14 -11 -29 -12 -35 -2 -5 -21 -66 -43 -135 -35 -105
-83 -263 -97 -320 -36 -138 -76 -300 -80 -318 -2 -12 -6 -30 -9 -40 -3 -9 -7
-28 -10 -42 -2 -14 -11 -59 -19 -100 -24 -118 -47 -242 -52 -275 -4 -32 -10
-70 -25 -175 -6 -36 -12 -87 -15 -115 -4 -46 -8 -86 -20 -200 -13 -118 -20
-325 -20 -615 0 -288 5 -423 21 -620 2 -30 6 -89 9 -130 8 -115 13 -180 19
-240 5 -51 8 -72 20 -162 9 -61 18 -113 22 -119 2 -3 6 -21 9 -39 26 -150 154
-527 217 -638 10 -18 18 -37 18 -43 0 -5 11 -27 25 -49 14 -22 22 -40 19 -40
-4 0 -2 -6 4 -12 5 -7 25 -40 43 -73 189 -349 518 -729 839 -967 41 -31 93
-66 115 -78 22 -12 45 -27 52 -32 20 -16 205 -104 248 -118 22 -7 46 -17 53
-23 6 -5 12 -7 12 -4 0 3 25 -3 55 -13 30 -10 69 -21 87 -24 18 -3 69 -12 113
-20 79 -14 356 -15 420 -2 17 3 44 8 60 11 17 3 39 7 50 9 77 15 264 74 283
89 6 5 12 7 12 4 0 -16 344 167 405 215 6 4 48 35 95 69 47 34 117 89 155 122
71 61 310 298 355 352 14 16 49 59 79 95 29 36 56 67 60 70 3 3 33 41 66 85
33 44 63 81 68 83 4 2 7 10 7 17 0 7 4 15 8 17 24 9 342 494 402 613 12 22 41
76 66 120 24 44 70 132 100 195 53 107 69 142 138 293 14 32 26 64 26 72 0 8
5 15 10 15 6 0 10 7 10 16 0 8 8 34 19 57 31 69 127 339 156 437 1 3 5 12 8
20 3 8 13 40 21 70 8 30 21 76 29 103 8 26 13 47 10 47 -3 0 0 7 7 15 7 9 10
18 7 21 -3 3 1 24 9 46 8 23 16 50 18 62 3 12 16 71 30 131 14 61 27 121 30
135 3 14 7 34 9 45 3 11 8 40 12 65 4 25 9 52 10 60 1 8 6 35 10 60 4 25 9 54
11 65 31 187 49 344 71 630 4 50 7 236 8 415 0 333 -6 483 -30 695 -4 33 -9
76 -11 95 -1 19 -5 49 -8 65 -3 17 -8 50 -11 75 -3 25 -10 65 -15 90 -5 25
-12 61 -15 80 -4 33 -9 59 -19 105 -4 19 -42 183 -50 215 -43 176 -132 444
-187 567 -10 24 -19 45 -19 49 0 13 -136 285 -178 354 -133 221 -261 388 -422
550 -115 116 -148 145 -230 206 -142 105 -319 193 -465 230 -16 4 -34 8 -40
10 -5 2 -26 6 -45 9 -19 4 -46 9 -60 12 -28 6 -336 14 -341 9z m156 -761 c25
-5 66 -16 155 -40 34 -9 129 -52 185 -84 169 -95 319 -264 420 -476 39 -82 85
-205 105 -280 5 -16 15 -55 23 -85 17 -62 54 -251 62 -320 26 -214 26 -804 1
-1035 -2 -16 -7 -66 -10 -109 -4 -43 -9 -86 -11 -95 -1 -9 -6 -43 -10 -76 -4
-33 -9 -69 -10 -80 -2 -11 -6 -45 -9 -75 -4 -30 -9 -62 -11 -70 -2 -8 -7 -35
-10 -60 -4 -25 -13 -79 -21 -120 -8 -41 -17 -91 -20 -110 -3 -19 -9 -51 -14
-70 -5 -19 -12 -51 -15 -70 -4 -19 -9 -44 -11 -55 -14 -72 -16 -85 -9 -85 12
0 44 45 45 63 0 9 5 17 10 17 6 0 10 6 10 14 0 7 11 33 23 57 13 24 38 82 56
129 19 47 38 96 44 110 6 14 11 27 12 30 0 3 16 52 34 110 18 58 34 112 36
120 2 8 12 51 24 95 11 44 22 91 25 105 3 14 7 36 11 50 3 14 7 42 10 64 3 21
7 41 9 45 3 4 7 32 10 62 3 29 7 63 10 74 2 11 7 49 11 85 4 36 9 79 11 95 4
31 13 160 19 280 2 39 4 172 4 296 1 180 4 228 14 232 10 4 19 -20 32 -91 22
-111 22 -111 25 -114 1 -2 3 -16 5 -33 2 -16 8 -55 14 -85 17 -88 21 -113 27
-150 2 -19 7 -46 9 -60 13 -68 25 -174 41 -355 15 -176 9 -654 -11 -825 -2
-19 -6 -65 -10 -102 -3 -37 -8 -77 -10 -90 -4 -23 -10 -64 -21 -135 -3 -21
-14 -87 -26 -148 -11 -60 -22 -121 -24 -135 -3 -14 -7 -33 -10 -42 -3 -10 -7
-29 -10 -44 -25 -136 -170 -646 -233 -819 -13 -33 -24 -64 -25 -70 -3 -12 -6
-17 -59 -150 -22 -55 -46 -109 -53 -120 -7 -11 -13 -22 -12 -25 1 -6 -78 -165
-125 -250 -19 -36 -46 -84 -59 -107 -34 -62 -115 -200 -156 -263 -52 -81 -155
-234 -161 -240 -3 -3 -22 -27 -41 -55 -19 -27 -40 -57 -47 -65 -178 -221 -429
-483 -539 -560 -12 -8 -46 -33 -75 -56 -161 -121 -390 -207 -554 -206 -169 1
-313 48 -485 160 -117 75 -159 110 -275 227 -85 85 -245 280 -245 299 0 3 -15
27 -34 53 -19 27 -45 68 -59 93 -129 233 -166 301 -184 340 -41 89 -71 156
-87 195 -13 29 -19 36 -26 26 -4 -8 -7 -22 -5 -31 5 -25 16 -92 19 -110 19
-131 72 -342 121 -485 217 -630 642 -1043 1210 -1179 61 -14 123 -26 160 -31
11 -2 43 -6 70 -10 46 -7 68 -9 118 -13 32 -3 9 -20 -56 -40 -82 -27 -132 -39
-187 -48 -25 -3 -56 -9 -70 -11 -56 -11 -327 -8 -384 3 -34 7 -74 15 -91 18
-45 7 -157 41 -201 61 -117 52 -163 75 -169 84 -3 6 -11 9 -16 6 -5 -4 -12 1
-15 9 -3 9 -12 16 -18 16 -21 0 -139 92 -226 175 -49 46 -70 70 -151 165 -98
116 -256 405 -347 635 -38 96 -88 241 -97 281 -2 10 -15 60 -28 109 -35 130
-46 180 -62 273 -13 80 -17 107 -29 197 -22 172 -29 298 -29 535 1 204 6 319
19 420 3 25 7 68 9 95 2 28 6 64 9 80 8 46 18 117 21 145 2 14 6 41 9 60 4 19
11 60 16 90 6 30 13 66 16 80 7 33 13 65 18 93 6 34 65 275 81 332 8 28 26 91
41 140 15 50 28 92 29 95 26 96 57 193 75 235 4 11 18 49 30 85 41 119 91 255
100 272 6 10 10 23 10 30 1 7 9 31 20 53 11 22 19 45 20 51 0 6 18 53 40 104
22 51 40 100 40 107 0 7 5 13 10 13 6 0 10 6 10 14 0 12 11 38 67 166 73 164
231 473 302 590 11 19 24 42 27 50 4 8 18 30 31 48 13 17 20 32 16 32 -4 0 -3
4 2 8 6 4 29 36 52 72 24 36 46 70 50 75 5 6 17 24 27 40 11 17 24 35 30 42 6
6 22 28 36 48 28 40 101 137 110 145 3 3 25 30 49 60 56 69 303 316 356 355
22 17 42 32 45 35 13 13 118 88 140 100 13 7 31 19 38 27 7 7 19 13 27 13 7 0
15 4 17 8 2 5 42 27 91 50 96 46 234 89 312 98 28 4 52 8 54 10 6 6 231 -3
266 -11z"/>
</g>
</svg>
